<svg xmlns="http://www.w3.org/2000/svg" width="128" height="128" viewBox="0 0 128 128">
  <defs>
    <linearGradient id="surface" x1="20" y1="12" x2="109" y2="118" gradientUnits="userSpaceOnUse">
      <stop stop-color="#343634"/>
      <stop offset="1" stop-color="#202220"/>
    </linearGradient>
    <filter id="shadow" x="-20%" y="-20%" width="140%" height="150%">
      <feDropShadow dx="0" dy="5" stdDeviation="6" flood-color="#101110" flood-opacity=".28"/>
    </filter>
  </defs>
  <rect x="8" y="8" width="112" height="112" rx="28" fill="url(#surface)" filter="url(#shadow)"/>
  <path d="M38.5 86.5 42 69.2 75.8 35.4a10.3 10.3 0 0 1 14.6 0l2.2 2.2a10.3 10.3 0 0 1 0 14.6L58.8 86 41.5 89.5a2.5 2.5 0 0 1-3-3Z" fill="none" stroke="#EFF2EC" stroke-width="8" stroke-linecap="round" stroke-linejoin="round"/>
  <path d="m72.5 39 16.5 16.5" fill="none" stroke="#EFF2EC" stroke-width="8" stroke-linecap="round"/>
  <circle cx="96" cy="91" r="12" fill="#10A37F"/>
  <path d="m90.5 91 3.6 3.6 7.4-8" fill="none" stroke="#F3F8F5" stroke-width="3.5" stroke-linecap="round" stroke-linejoin="round"/>
</svg>
